<svg xmlns="http://www.w3.org/2000/svg" version="1.1" xmlns:xlink="http://www.w3.org/1999/xlink" xmlns:svgjs="http://svgjs.dev/svgjs" width="1500" height="1500" viewBox="0 0 1500 1500"><rect width="1500" height="1500" fill="#77d4fc"></rect><g transform="matrix(0.6666666666666666,0,0,0.6666666666666666,249.39393939393938,652.0325565527787)"><svg viewBox="0 0 396 78" data-background-color="#77d4fc" preserveAspectRatio="xMidYMid meet" height="295" width="1500" xmlns="http://www.w3.org/2000/svg" xmlns:xlink="http://www.w3.org/1999/xlink"><g id="tight-bounds" transform="matrix(1,0,0,1,0.2400000000000091,-0.14511564974614544)"><svg viewBox="0 0 395.52 78.29023129949229" height="78.29023129949229" width="395.52"><g><svg viewBox="0 0 657.2377651846283 130.0953090995802" height="78.29023129949229" width="395.52"><g transform="matrix(1,0,0,1,261.7177651846283,28.43570504067369)"><svg viewBox="0 0 395.52 73.22389901823281" height="73.22389901823281" width="395.52"><g id="textblocktransform"><svg viewBox="0 0 395.52 73.22389901823281" height="73.22389901823281" width="395.52" id="textblock"><g><svg viewBox="0 0 395.52 73.22389901823281" height="73.22389901823281" width="395.52"><g transform="matrix(1,0,0,1,0,0)"><svg width="395.52" viewBox="2.4399999999999995 -31.74 174.06 32.230000000000004" height="73.22389901823281" data-palette-color="#0080ff"><path d="M26.76-2.25L26.76-2.25Q26.76-0.2 27.34 0.1L27.34 0.1Q27.69 0.24 28.27 0.24L28.27 0.24 28.27-8.98 27.1-8.98Q24.61-0.93 17.14-0.88L17.14-0.88Q10.79-0.88 8.5-7.28L8.5-7.28Q7.37-10.4 7.37-14.65L7.37-14.65Q7.37-23.78 12.4-27.05L12.4-27.05Q14.6-28.42 17.29-28.42L17.29-28.42Q23.39-28.42 26.12-22.66L26.12-22.66Q26.61-21.63 26.95-20.56L26.95-20.56 28.13-20.56 27.98-29.54Q26.9-29.54 26.66-28.86L26.66-28.86Q26.51-28.27 26.51-26.95L26.51-26.95Q25.1-28.37 21.68-29.25L21.68-29.25Q19.43-29.79 17.09-29.79L17.09-29.79Q9.38-29.79 5.27-24.07L5.27-24.07Q2.44-20.02 2.44-14.75L2.44-14.75Q2.44-8.35 6.4-4L6.4-4Q10.6 0.49 17.33 0.49L17.33 0.49Q22.27 0.44 26.76-2.25ZM42.04-1.22L42.04-1.22 39.4-1.22 39.4-31.74 32.08-31.74 32.08-30.52 35.74-30.52 35.74-4.15Q35.74-1.9 34.47-1.46L34.47-1.46Q33.74-1.22 32.08-1.22L32.08-1.22 32.08 0 43.26 0Q43.26-1.07 42.53-1.17L42.53-1.17Q42.33-1.22 42.04-1.22ZM50.68-10.4L50.68-10.4Q50.68-17.97 54.83-19.63L54.83-19.63Q55.9-20.02 57.08-20.02L57.08-20.02Q62.5-20.02 63.37-13.18L63.37-13.18Q63.52-12.01 63.52-10.6L63.52-10.6Q63.52-2.39 59.03-0.98L59.03-0.98Q58.15-0.73 57.22-0.73L57.22-0.73Q52.29-0.73 51.02-6.59L51.02-6.59Q50.68-8.3 50.68-10.4ZM57.22-21.24L57.22-21.24Q52.53-21.24 49.41-18.02L49.41-18.02Q46.53-15.04 46.53-10.6L46.53-10.6Q46.53-4.44 51.02-1.37L51.02-1.37Q53.75 0.49 57.08 0.49L57.08 0.49Q61.76 0.49 64.84-2.83L64.84-2.83Q67.67-5.86 67.67-10.4L67.67-10.4Q67.67-16.55 63.13-19.53L63.13-19.53Q60.44-21.24 57.22-21.24ZM94.77-1.22L94.77-1.22 92.33-1.22 92.33-20.75 84.66-20.75 84.66-19.53 88.66-19.53 88.66-8.98Q88.66-4.59 85.59-2.54L85.59-2.54Q84.22-1.61 82.76-1.61L82.76-1.61Q78.75-1.61 78.12-5.71L78.12-5.71Q78.02-6.4 78.02-7.18L78.02-7.18 78.02-20.75 70.6-20.75 70.6-19.53 74.36-19.53 74.36-7.91Q74.41 0.44 81.34 0.49L81.34 0.49Q85 0.49 87.35-2.49L87.35-2.49Q88.22-3.61 88.76-4.98L88.76-4.98 89.1 0 95.99 0Q95.99-1.07 95.26-1.17L95.26-1.17Q95.06-1.22 94.77-1.22ZM115.52-5.18L115.91 0 122.89 0Q122.89-1.07 122.16-1.17L122.16-1.17Q121.96-1.22 121.67-1.22L121.67-1.22 119.23-1.22 119.13-31.74 110.83-31.74 110.83-30.52 115.47-30.52 115.47-18.6Q113.08-21.24 109.02-21.24L109.02-21.24Q103.65-21.24 100.92-16.46L100.92-16.46Q99.26-13.53 99.26-9.86L99.26-9.86Q99.26-3.81 103.07-1.03L103.07-1.03Q105.21 0.49 107.8 0.49L107.8 0.49Q113.12 0.39 115.52-5.18L115.52-5.18ZM103.41-10.45L103.41-10.45Q103.41-17.33 107.12-19.38L107.12-19.38Q108.29-20.02 109.71-20.02L109.71-20.02Q113.27-20.02 114.78-16.21L114.78-16.21Q115.62-14.16 115.62-11.38L115.62-11.38Q115.62-5.52 112.69-2.88L112.69-2.88Q111.12-1.46 109.12-1.46L109.12-1.46Q105.12-1.46 103.9-6.35L103.9-6.35Q103.41-8.15 103.41-10.45ZM135.53 0L147.49 0Q147.49-1.07 146.71-1.22L146.71-1.22Q146.47-1.27 146.23-1.27L146.23-1.27 143.64-1.27 143.64-28.03 147.49-28.03 147.49-29.3 135.53-29.3 135.53-28.03 139.44-28.03 139.44-1.27 135.53-1.27 135.53 0ZM157.16 0L169.12 0Q169.12-1.07 168.34-1.22L168.34-1.22Q168.1-1.27 167.85-1.27L167.85-1.27 165.22-1.27 165.22-12.16 172.59-26.66Q173.71-27.98 175.23-28.03L175.23-28.03Q176.3-28.03 176.45-28.81L176.45-28.81Q176.5-29.05 176.5-29.3L176.5-29.3 167.8-29.3 167.8-28.03 171.71-28.03 164.29-13.82 156.53-28.03 160.24-28.03 160.24-29.3 149.2-29.3 149.2-28.03 151.89-28.03 161.07-11.67 161.07-1.27 157.16-1.27 157.16 0Z" opacity="1" transform="matrix(1,0,0,1,0,0)" fill="#0080ff" class="wordmark-text-0" data-fill-palette-color="primary" id="text-0"></path></svg></g></svg></g></svg></g></svg></g><g><svg viewBox="0 0 244.43135999999998 130.0953090995802" height="130.0953090995802" width="244.43135999999998"><g><svg xmlns:x="http://ns.adobe.com/Extensibility/1.0/" xmlns:i="http://ns.adobe.com/AdobeIllustrator/10.0/" xmlns:graph="http://ns.adobe.com/Graphs/1.0/" xmlns="http://www.w3.org/2000/svg" xmlns:xlink="http://www.w3.org/1999/xlink" version="1.1" x="0" y="0" viewBox="0.19000000000000838 17.32600000000001 99.809 53.122" enable-background="new 0 0 100 100" xml:space="preserve" height="130.0953090995802" width="244.43135999999998" class="icon-icon-0" data-fill-palette-color="accent" id="icon-0"><path fill="#0023ff" d="M1.028 59.63h0.006l5.819 0.011 20.26 0.039 5.818 0.012 7.969 0.016 0.915 0.002c0.3 0.016 0.604 0.025 0.908 0.025V59.71l1.822 0.004c0.014-0.002 0.029-0.004 0.044-0.006l6.146 0.017c2.443 6.268 8.539 10.723 15.66 10.723 7.097 0 13.178-4.426 15.635-10.66l1.146 0.002 11.702 0.021 0.427-0.429c2.903-3.021 4.694-7.12 4.694-11.632 0-8.281-6.026-15.179-13.922-16.55-0.017-0.003-0.033-0.004-0.05-0.007-1.396-7.869-8.276-13.867-16.539-13.867-7.784 0-14.346 5.323-16.245 12.52-2.882-2.322-6.541-3.716-10.521-3.716-8.367 0-15.324 6.149-16.594 14.165-2.631-1.712-5.768-2.712-9.136-2.712-9.264 0-16.802 7.538-16.802 16.802 0 1.824 0.296 3.582 0.837 5.227L1.028 59.63 1.028 59.63zM42.724 31.504c6.301 0 11.426 5.125 11.426 11.427h5.377c0-0.313-0.012-0.624-0.027-0.933-0.006-0.089-0.016-0.177-0.021-0.266-0.016-0.224-0.033-0.448-0.059-0.67-0.01-0.083-0.021-0.164-0.031-0.246-0.031-0.243-0.065-0.485-0.106-0.724-0.007-0.042-0.015-0.083-0.021-0.124-0.152-0.84-0.363-1.658-0.635-2.45l-0.562-3.392c0-6.301 5.125-11.427 11.427-11.427 5.312 0 9.788 3.644 11.063 8.563 0.016-0.003 0.033-0.005 0.051-0.007 0.221 0.884 0.34 1.808 0.34 2.76 0 0.893-0.106 1.762-0.301 2.597 0.82-0.188 1.676-0.291 2.555-0.291 1.004 0 1.977 0.131 2.904 0.375 4.899 1.288 8.522 5.754 8.522 11.051 0 2.549-0.84 4.905-2.257 6.81l-14.596-0.02c0.004 0.012 0.011 0.023 0.015 0.033-0.093 1.246-0.381 2.354-0.843 3.457-1.723 4.129-5.803 7.039-10.549 7.039-6.019 0-10.959-4.674-11.393-10.582 0 0 0 0 0-0.002l0 0c-0.002-0.021-0.005-0.041-0.006-0.062l-5.385-0.011c0.001 0.021 0.003 0.043 0.004 0.064l-7.484-0.017c-6.028-0.313-10.837-5.427-10.837-11.53C31.296 36.63 36.422 31.504 42.724 31.504zM16.994 42.956c4.318 0 8.083 2.408 10.025 5.95-0.009-0.027-0.018-0.053-0.027-0.08 0.791 2.104 1.993 4.006 3.507 5.613h-0.047l-2.032-0.004L5.567 54.391c0-0.002 0-0.004 0-0.008C5.567 48.082 10.693 42.956 16.994 42.956zM26.771 48.195c0.007 0.02 0.014 0.04 0.021 0.06C26.784 48.235 26.777 48.215 26.771 48.195z" data-fill-palette-color="accent"></path></svg><g></g></g></svg></g></svg></g><defs></defs></svg><rect width="395.52" height="78.29023129949229" fill="none" stroke="none" visibility="hidden"></rect></g></svg></g></svg>